Coordinates
version=1
nRows=12
nColumns=24
inDegrees=yes

Units are S.I. units (second, meters, Newtons, ...)
Angles are in degrees.

endheader
time	pelvis_tilt	pelvis_list	pelvis_rotation	pelvis_tx	pelvis_ty	pelvis_tz	hip_flexion_r	hip_adduction_r	hip_rotation_r	knee_angle_r	ankle_angle_r	subtalar_angle_r	mtp_angle_r	hip_flexion_l	hip_adduction_l	hip_rotation_l	knee_angle_l	ankle_angle_l	subtalar_angle_l	mtp_angle_l	lumbar_extension	lumbar_bending	lumbar_rotation
      5.44000000	     51.21476569	    -14.03434491	     -1.97845830	      0.43325781	      1.02031881	     -0.34915684	     27.73287241	      1.32731000	      4.62653883	    -47.91726245	      8.32421499	     44.72808035	      0.00000000	     21.36476035	    -26.17471933	      9.42342271	    -67.48318782	     25.01748460	     30.74893198	      0.00000000	      0.00000000	      0.00000000	      0.00000000
      5.45000000	     51.21318913	    -14.04553998	     -1.97768397	      0.43323756	      1.02031143	     -0.34912850	     27.75001864	      1.40320114	      4.60329805	    -47.13080411	      8.12607819	     44.61841019	      0.00000000	     21.37172240	    -26.18760892	      9.43180454	    -67.48361408	     25.01356527	     30.75077697	      0.00000000	      0.00000000	      0.00000000	      0.00000000
      5.46000000	     51.21038729	    -14.05774692	     -1.97501032	      0.43322368	      1.02029093	     -0.34908781	     27.76814336	      1.47890373	      4.58029168	    -46.34320805	      7.90729577	     44.48792517	      0.00000000	     21.38283778	    -26.20214620	      9.44366922	    -67.48603208	     25.00946736	     30.75253601	      0.00000000	      0.00000000	      0.00000000	      0.00000000
      5.47000000	     51.20504563	    -14.07115384	     -1.97186294	      0.43321572	      1.02025599	     -0.34903479	     27.78891279	      1.55361035	      4.55817997	    -45.55512026	      7.67529567	     44.34805240	      0.00000000	     21.39799438	    -26.21820807	      9.45680031	    -67.49002748	     25.00563256	     30.75430242	      0.00000000	      0.00000000	      0.00000000	      0.00000000
      5.48000000	     51.19668900	    -14.08493488	     -1.97013841	      0.43320681	      1.02021497	     -0.34897863	     27.81565232	      1.62802675	      4.53733916	    -44.76894924	      7.44235166	     44.21145112	      0.00000000	     21.41620125	    -26.23455924	      9.46836260	    -67.49507314	     25.00248520	     30.75622467	      0.00000000	      0.00000000	      0.00000000	      0.00000000
      5.49000000	     51.18589592	    -14.09726747	     -1.97175776	      0.43319351	      1.02018515	     -0.34893502	     27.85206828	      1.70386535	      4.51894794	    -43.99071353	      7.22223992	     44.08917126	      0.00000000	     21.43581161	    -26.24971677	      9.47614302	    -67.50072988	     25.00035754	     30.75843065	      0.00000000	      0.00000000	      0.00000000	      0.00000000
      5.50000000	     51.17400997	    -14.10663179	     -1.97782939	      0.43318229	      1.02017271	     -0.34890750	     27.90042181	      1.78196057	      4.50624567	    -43.23087051	      7.02599823	     43.98806394	      0.00000000	     21.45498389	    -26.26307479	      9.47967675	    -67.50675777	     24.99941765	     30.76096112	      0.00000000	      0.00000000	      0.00000000	      0.00000000
      5.51000000	     51.16283436	    -14.11322242	     -1.98735071	      0.43317896	      1.02015228	     -0.34887063	     27.96087261	      1.86146093	      4.50426235	    -42.50213739	      6.85877653	     43.90950256	      0.00000000	     21.47175913	    -26.27494113	      9.48024654	    -67.51316227	     24.99961883	     30.76377010	      0.00000000	      0.00000000	      0.00000000	      0.00000000
      5.52000000	     51.15477285	    -14.11870129	     -1.99654410	      0.43318177	      1.02009314	     -0.34879804	     28.03254807	      1.94130008	      4.51728115	    -41.81353741	      6.71915856	     43.84990047	      0.00000000	     21.48383418	    -26.28554230	      9.47965212	    -67.52016806	     25.00069266	     30.76678848	      0.00000000	      0.00000000	      0.00000000	      0.00000000
      5.53000000	     51.15264321	    -14.12452213	     -2.00058320	      0.43319069	      1.02002191	     -0.34871865	     28.11393358	      2.02156847	      4.54542116	    -41.16321135	      6.60073379	     43.80253800	      0.00000000	     21.48915620	    -26.29451919	      9.47884405	    -67.52796146	     25.00220805	     30.76998225	      0.00000000	      0.00000000	      0.00000000	      0.00000000
      5.54000000	     51.15766378	    -14.13104659	     -1.99774610	      0.43321397	      1.02001813	     -0.34870087	     28.20005405	      2.10187143	      4.58283719	    -40.53498516	      6.49454786	     43.75970704	      0.00000000	     21.48765607	    -26.30175623	      9.47759087	    -67.53616603	     25.00369244	     30.77335072	      0.00000000	      0.00000000	      0.00000000	      0.00000000
      5.55000000	     51.16667081	    -14.13804259	     -1.99257934	      0.43324891	      1.02010105	     -0.34875185	     28.27914066	      2.17858448	      4.61906524	    -39.90227380	      6.39135417	     43.71450093	      0.00000000	     21.48239768	    -26.30843883	      9.47516536	    -67.54345404	     25.00476231	     30.77688731	      0.00000000	      0.00000000	      0.00000000	      0.00000000
